<?xml version="1.0" encoding="utf-8"?>
<!-- Generator: Adobe Illustrator 22.0.1, SVG Export Plug-In . SVG Version: 6.00 Build 0)  -->
<svg version="1.1" id="Capa_1" xmlns="http://www.w3.org/2000/svg" xmlns:xlink="http://www.w3.org/1999/xlink" x="0px" y="0px"
	 viewBox="0 0 552.2 283.5" style="enable-background:new 0 0 552.2 283.5;" xml:space="preserve">
<style type="text/css">
	.st0{fill:#E4022D;}
	.st1{fill:#363936;}
</style>
<g>
	<polygon class="st0" points="437.8,1.8 468.3,1.8 488.6,32.7 473.3,56 	"/>
	<polygon class="st0" points="480.2,1.8 510.7,1.8 552.2,65 536.9,88.3 	"/>
	<polygon class="st0" points="515.7,74.1 480.2,128.3 510.7,128.3 531,97.4 	"/>
	<polygon class="st0" points="494.5,41.8 437.8,128.3 468.3,128.3 509.8,65 	"/>
	<path class="st1" d="M139.3,109.9l16.4-19.7c11.4,9.4,23.3,15.4,37.8,15.4c11.4,0,18.3-4.5,18.3-11.9v-0.4c0-7-4.3-10.7-25.5-16.1
		c-25.5-6.5-41.9-13.6-41.9-38.7v-0.4c0-22.9,18.4-38.1,44.3-38.1c18.4,0,34.2,5.8,47,16.1l-14.5,21c-11.2-7.8-22.2-12.5-32.9-12.5
		c-10.7,0-16.3,4.9-16.3,11V36c0,8.3,5.4,11,27.3,16.6c25.7,6.7,40.1,15.9,40.1,37.9v0.4c0,25.1-19.2,39.2-46.4,39.2
		C173.8,130.1,154.5,123.4,139.3,109.9"/>
	<polygon class="st1" points="290.4,27.5 251.9,27.5 251.9,1.8 356.7,1.8 356.7,27.5 318.2,27.5 318.2,128.3 290.4,128.3 	"/>
	<rect x="379.3" y="1.8" class="st1" width="27.8" height="126.5"/>
	<polygon class="st1" points="130.4,128.3 78.3,1.8 52.1,1.8 0,128.3 25.7,128.3 37.3,100.1 82.3,100.1 72.2,75.6 47.4,75.6 
		65.2,32.4 104.7,128.3 	"/>
	<path class="st1" d="M502.8,263.5c-4.4-0.6-6.5-1.2-6.5-4.8c0-2.9,1.8-5,7-5c3.3,0,6.4,0.7,8.8,1.7v-4.9c-1.7-0.9-4.7-1.6-9.1-1.6
		c-9.1,0-11.9,4.8-11.9,9.7c0,6.1,3.2,8.3,11.4,9.4c4.5,0.6,6.1,1.5,6.1,5.2c0,3.2-1.8,5.6-7.8,5.6c-4.6,0-7.8-1.4-9.6-2.2v5
		c2.3,1.2,6.6,1.9,10,1.9c9,0,12.8-4.3,12.8-10.7C513.8,266,509.7,264.4,502.8,263.5 M461.7,266.2c0,11,3.9,17.3,13.8,17.3
		c4,0,6.3-0.8,7.9-1.4v-4.8c-2.6,1-4.5,1.5-7.6,1.5c-6.4,0-9-4.3-9-12.6c0-8.3,2.6-12.6,9-12.6c3,0,5,0.5,7.6,1.5v-4.8
		c-1.6-0.7-3.9-1.4-7.9-1.4C465.6,248.9,461.7,255.2,461.7,266.2 M452.9,249.4h-5V283h5V249.4z M440,254v-4.6h-22.5v4.6h8.7v29h5
		v-29H440z M398.3,253.4c6.4,0,7.8,4.8,7.8,12.8s-1.4,12.8-7.8,12.8s-7.8-4.8-7.8-12.8S392,253.4,398.3,253.4 M398.3,283.6
		c10.8,0,13-7.8,13-17.3s-2.1-17.3-13-17.3c-10.8,0-13,7.8-13,17.3S387.5,283.6,398.3,283.6 M371.7,258.8c0,2.2-0.9,4.6-5,4.6h-6.6
		V254h6.4C370.9,254,371.7,256.6,371.7,258.8 M360.1,267.7h6.8c4.3,0,5.8,1.9,5.8,5.3c0,2.8-1.2,5.4-5.9,5.4h-6.7V267.7z M355.1,283
		h11.6c8.7,0,11.4-4.3,11.4-9.9c0-3.9-1.8-6.9-5.1-7.9c2.6-1.2,4-3.8,4-6.7c0-5.2-2.5-9.2-10.7-9.2h-11.3V283z M333.6,253.4
		c6.4,0,7.8,4.8,7.8,12.8S340,279,333.6,279c-6.4,0-7.8-4.8-7.8-12.8S327.2,253.4,333.6,253.4 M333.6,283.6c10.8,0,13-7.8,13-17.3
		s-2.2-17.3-13-17.3c-10.8,0-13,7.8-13,17.3S322.8,283.6,333.6,283.6 M295.4,254h6.6c4.7,0,5.3,2.6,5.3,5.4c0,2.7-0.6,5.4-5.3,5.4
		h-6.6V254z M295.4,269.3h7l6.1,13.7h5.9l-7-14.7c4.1-1.4,5.5-4.6,5.5-9c0-6.1-2.8-10-11.5-10h-10.9V283h5V269.3z"/>
	<path class="st1" d="M456.4,210.3h-14V201h15.4v-4.6h-20.4V230h20.4v-4.6h-15.4v-10.5h14V210.3z M415.3,196.4h-5V230h19.6v-4.6
		h-14.6V196.4z M400.8,196.4h-5V230h5V196.4z M381,205.8c0,2.2-0.9,4.6-5,4.6h-6.6V201h6.4C380.3,201,381,203.6,381,205.8
		 M369.5,214.7h6.8c4.3,0,5.8,1.9,5.8,5.3c0,2.8-1.2,5.4-5.9,5.4h-6.7V214.7z M364.4,230H376c8.7,0,11.4-4.3,11.4-9.9
		c0-3.9-1.8-7-5.1-7.9c2.6-1.2,4-3.8,4-6.7c0-5.2-2.5-9.2-10.7-9.2h-11.3V230z M343,200.4c6.4,0,7.8,4.8,7.8,12.8
		c0,8-1.4,12.8-7.8,12.8c-6.4,0-7.8-4.8-7.8-12.8C335.2,205.2,336.6,200.4,343,200.4 M343,230.6c10.8,0,13-7.8,13-17.3
		s-2.2-17.3-13-17.3c-10.8,0-13,7.8-13,17.3S332.2,230.6,343,230.6 M316.7,204.7l-0.2,25.3h5v-33.6H315l-9.1,22.9l-9.1-22.9h-6.5
		V230h5l-0.2-25.3l8.4,20.7h4.7L316.7,204.7z"/>
</g>
</svg>
